<?xml version="1.0" encoding="UTF-8"?>
<svg viewBox="0 0 680 340" width="100%" preserveAspectRatio="xMidYMid meet" class="chart" style="font-family:sans-serif" xmlns="http://www.w3.org/2000/svg" role="img"><line x1="55" y1="20.0" x2="660" y2="20.0" stroke="#e2e8f0" stroke-width="1"/><text x="47" y="24.0" text-anchor="end" class="axis">414,437</text><line x1="55" y1="82.5" x2="660" y2="82.5" stroke="#e2e8f0" stroke-width="1"/><text x="47" y="86.5" text-anchor="end" class="axis">310,828</text><line x1="55" y1="145.0" x2="660" y2="145.0" stroke="#e2e8f0" stroke-width="1"/><text x="47" y="149.0" text-anchor="end" class="axis">207,218</text><line x1="55" y1="207.5" x2="660" y2="207.5" stroke="#e2e8f0" stroke-width="1"/><text x="47" y="211.5" text-anchor="end" class="axis">103,609</text><line x1="55" y1="270.0" x2="660" y2="270.0" stroke="#e2e8f0" stroke-width="1"/><text x="47" y="274.0" text-anchor="end" class="axis">0</text><g class="bar"><title>OEWS 2022: 409,859 rows</title><rect x="67.6" y="22.8" width="75.6" height="247.2" rx="3" fill="#5eafd6"/><text x="105.4" y="16.8" text-anchor="middle" class="val">409,859</text></g><text x="105.4" y="286.0" text-anchor="end" transform="rotate(-30 105.4 286.0)" class="axis">OEWS 2022</text><g class="bar"><title>OEWS 2023: 413,327 rows</title><rect x="168.4" y="20.7" width="75.6" height="249.3" rx="3" fill="#6ea8e8"/><text x="206.2" y="14.7" text-anchor="middle" class="val">413,327</text></g><text x="206.2" y="286.0" text-anchor="end" transform="rotate(-30 206.2 286.0)" class="axis">OEWS 2023</text><g class="bar"><title>OEWS 2024: 414,437 rows</title><rect x="269.3" y="20.0" width="75.6" height="250.0" rx="3" fill="#7c93e8"/><text x="307.1" y="14.0" text-anchor="middle" class="val">414,437</text></g><text x="307.1" y="286.0" text-anchor="end" transform="rotate(-30 307.1 286.0)" class="axis">OEWS 2024</text><g class="bar"><title>OEWS 2025: 413,527 rows</title><rect x="370.1" y="20.5" width="75.6" height="249.5" rx="3" fill="#8f8ae0"/><text x="407.9" y="14.5" text-anchor="middle" class="val">413,527</text></g><text x="407.9" y="286.0" text-anchor="end" transform="rotate(-30 407.9 286.0)" class="axis">OEWS 2025</text><g class="bar"><title>O*NET Ratings: 161,559 rows</title><rect x="470.9" y="172.5" width="75.6" height="97.5" rx="3" fill="#a98cdb"/><text x="508.8" y="166.5" text-anchor="middle" class="val">161,559</text></g><text x="508.8" y="286.0" text-anchor="end" transform="rotate(-30 508.8 286.0)" class="axis">O*NET Ratings</text><g class="bar"><title>O*NET Statements: 18,796 rows</title><rect x="571.8" y="258.7" width="75.6" height="11.3" rx="3" fill="#b58ad0"/><text x="609.6" y="252.7" text-anchor="middle" class="val">18,796</text></g><text x="609.6" y="286.0" text-anchor="end" transform="rotate(-30 609.6 286.0)" class="axis">O*NET Statements</text></svg>