<?xml version="1.0" encoding="UTF-8"?>
<svg viewBox="0 0 680 340" width="100%" preserveAspectRatio="xMidYMid meet" class="chart" style="font-family:sans-serif" xmlns="http://www.w3.org/2000/svg" role="img"><line x1="55" y1="20.0" x2="660" y2="20.0" stroke="#e2e8f0" stroke-width="1"/><text x="47" y="24.0" text-anchor="end" class="axis">306,381</text><line x1="55" y1="82.5" x2="660" y2="82.5" stroke="#e2e8f0" stroke-width="1"/><text x="47" y="86.5" text-anchor="end" class="axis">229,786</text><line x1="55" y1="145.0" x2="660" y2="145.0" stroke="#e2e8f0" stroke-width="1"/><text x="47" y="149.0" text-anchor="end" class="axis">153,190</text><line x1="55" y1="207.5" x2="660" y2="207.5" stroke="#e2e8f0" stroke-width="1"/><text x="47" y="211.5" text-anchor="end" class="axis">76,595</text><line x1="55" y1="270.0" x2="660" y2="270.0" stroke="#e2e8f0" stroke-width="1"/><text x="47" y="274.0" text-anchor="end" class="axis">0</text><g class="bar"><title>total: 1,034 rows</title><rect x="70.1" y="269.2" width="90.8" height="0.8" rx="3" fill="#5eafd6"/><text x="115.5" y="263.2" text-anchor="middle" class="val">1,034</text></g><text x="115.5" y="286.0" text-anchor="end" transform="rotate(-30 115.5 286.0)" class="axis">total</text><g class="bar"><title>major: 20,580 rows</title><rect x="191.1" y="253.2" width="90.8" height="16.8" rx="3" fill="#6ea8e8"/><text x="236.5" y="247.2" text-anchor="middle" class="val">20,580</text></g><text x="236.5" y="286.0" text-anchor="end" transform="rotate(-30 236.5 286.0)" class="axis">major</text><g class="bar"><title>minor: 23,441 rows</title><rect x="312.1" y="250.9" width="90.8" height="19.1" rx="3" fill="#7c93e8"/><text x="357.5" y="244.9" text-anchor="middle" class="val">23,441</text></g><text x="357.5" y="286.0" text-anchor="end" transform="rotate(-30 357.5 286.0)" class="axis">minor</text><g class="bar"><title>broad: 62,091 rows</title><rect x="433.1" y="219.3" width="90.8" height="50.7" rx="3" fill="#8f8ae0"/><text x="478.5" y="213.3" text-anchor="middle" class="val">62,091</text></g><text x="478.5" y="286.0" text-anchor="end" transform="rotate(-30 478.5 286.0)" class="axis">broad</text><g class="bar"><title>detailed: 306,381 rows</title><rect x="554.1" y="20.0" width="90.8" height="250.0" rx="3" fill="#a98cdb"/><text x="599.5" y="14.0" text-anchor="middle" class="val">306,381</text></g><text x="599.5" y="286.0" text-anchor="end" transform="rotate(-30 599.5 286.0)" class="axis">detailed</text></svg>