<?xml version="1.0" encoding="UTF-8"?>
<svg viewBox="0 0 520 300" width="100%" preserveAspectRatio="xMidYMid meet" class="chart" style="font-family:sans-serif" xmlns="http://www.w3.org/2000/svg" role="img"><g class="seg"><title>FT · Frequency: 125,657 (77.8%)</title><path d="M 150.0 42.0 A 108.0 108.0 0 1 1 43.6 131.2 L 90.9 139.6 A 60.0 60.0 0 1 0 150.0 90.0 Z" fill="#5eafd6"/></g><g class="seg"><title>IM · Importance: 17,951 (11.1%)</title><path d="M 43.6 131.2 A 108.0 108.0 0 0 1 80.6 67.3 L 111.4 104.0 A 60.0 60.0 0 0 0 90.9 139.6 Z" fill="#6ea8e8"/></g><g class="seg"><title>RT · Relevance: 17,951 (11.1%)</title><path d="M 80.6 67.3 A 108.0 108.0 0 0 1 150.0 42.0 L 150.0 90.0 A 60.0 60.0 0 0 0 111.4 104.0 Z" fill="#7c93e8"/></g><rect x="320" y="113" width="14" height="14" rx="3" fill="#5eafd6"/><text x="342" y="124" class="legend">FT · Frequency (78%)</text><rect x="320" y="139" width="14" height="14" rx="3" fill="#6ea8e8"/><text x="342" y="150" class="legend">IM · Importance (11%)</text><rect x="320" y="165" width="14" height="14" rx="3" fill="#7c93e8"/><text x="342" y="176" class="legend">RT · Relevance (11%)</text></svg>