<?xml version="1.0" encoding="UTF-8"?>
<svg viewBox="0 0 520 300" width="100%" preserveAspectRatio="xMidYMid meet" class="chart" style="font-family:sans-serif" xmlns="http://www.w3.org/2000/svg" role="img"><g class="seg"><title>Core: 13,643 (72.6%)</title><path d="M 150.0 42.0 A 108.0 108.0 0 1 1 43.2 166.3 L 90.7 159.1 A 60.0 60.0 0 1 0 150.0 90.0 Z" fill="#5eafd6"/></g><g class="seg"><title>Supplemental: 4,308 (22.9%)</title><path d="M 43.2 166.3 A 108.0 108.0 0 0 1 119.9 46.3 L 133.3 92.4 A 60.0 60.0 0 0 0 90.7 159.1 Z" fill="#6ea8e8"/></g><g class="seg"><title>n/a: 845 (4.5%)</title><path d="M 119.9 46.3 A 108.0 108.0 0 0 1 150.0 42.0 L 150.0 90.0 A 60.0 60.0 0 0 0 133.3 92.4 Z" fill="#7c93e8"/></g><rect x="320" y="113" width="14" height="14" rx="3" fill="#5eafd6"/><text x="342" y="124" class="legend">Core (73%)</text><rect x="320" y="139" width="14" height="14" rx="3" fill="#6ea8e8"/><text x="342" y="150" class="legend">Supplemental (23%)</text><rect x="320" y="165" width="14" height="14" rx="3" fill="#7c93e8"/><text x="342" y="176" class="legend">n/a (4%)</text></svg>