<?xml version="1.0" encoding="UTF-8"?>
<svg viewBox="0 0 680 320" width="100%" preserveAspectRatio="xMidYMid meet" class="chart" style="font-family:sans-serif" xmlns="http://www.w3.org/2000/svg" role="img"><line x1="55" y1="15.0" x2="665" y2="15.0" stroke="#e2e8f0"/><text x="47" y="19.0" text-anchor="end" class="axis">2,602</text><line x1="55" y1="81.2" x2="665" y2="81.2" stroke="#e2e8f0"/><text x="47" y="85.2" text-anchor="end" class="axis">1,952</text><line x1="55" y1="147.5" x2="665" y2="147.5" stroke="#e2e8f0"/><text x="47" y="151.5" text-anchor="end" class="axis">1,301</text><line x1="55" y1="213.8" x2="665" y2="213.8" stroke="#e2e8f0"/><text x="47" y="217.8" text-anchor="end" class="axis">650</text><line x1="55" y1="280.0" x2="665" y2="280.0" stroke="#e2e8f0"/><text x="47" y="284.0" text-anchor="end" class="axis">0</text><g class="bar"><title>0.11–0.15: 2</title><rect x="55.0" y="279.8" width="29.5" height="0.2" fill="#8f8ae0" rx="1"/></g><g class="bar"><title>0.15–0.20: 2</title><rect x="85.5" y="279.8" width="29.5" height="0.2" fill="#8f8ae0" rx="1"/></g><g class="bar"><title>0.20–0.24: 2</title><rect x="116.0" y="279.8" width="29.5" height="0.2" fill="#8f8ae0" rx="1"/></g><g class="bar"><title>0.24–0.29: 8</title><rect x="146.5" y="279.2" width="29.5" height="0.8" fill="#8f8ae0" rx="1"/></g><g class="bar"><title>0.29–0.33: 22</title><rect x="177.0" y="277.8" width="29.5" height="2.2" fill="#8f8ae0" rx="1"/></g><g class="bar"><title>0.33–0.38: 59</title><rect x="207.5" y="274.0" width="29.5" height="6.0" fill="#8f8ae0" rx="1"/></g><g class="bar"><title>0.38–0.42: 96</title><rect x="238.0" y="270.2" width="29.5" height="9.8" fill="#8f8ae0" rx="1"/></g><g class="bar"><title>0.42–0.47: 201</title><rect x="268.5" y="259.5" width="29.5" height="20.5" fill="#8f8ae0" rx="1"/></g><g class="bar"><title>0.47–0.51: 312</title><rect x="299.0" y="248.2" width="29.5" height="31.8" fill="#8f8ae0" rx="1"/></g><g class="bar"><title>0.51–0.55: 526</title><rect x="329.5" y="226.4" width="29.5" height="53.6" fill="#8f8ae0" rx="1"/></g><g class="bar"><title>0.55–0.60: 849</title><rect x="360.0" y="193.5" width="29.5" height="86.5" fill="#8f8ae0" rx="1"/></g><g class="bar"><title>0.60–0.64: 1,296</title><rect x="390.5" y="148.0" width="29.5" height="132.0" fill="#8f8ae0" rx="1"/></g><g class="bar"><title>0.64–0.69: 1,834</title><rect x="421.0" y="93.2" width="29.5" height="186.8" fill="#8f8ae0" rx="1"/></g><g class="bar"><title>0.69–0.73: 2,188</title><rect x="451.5" y="57.2" width="29.5" height="222.8" fill="#8f8ae0" rx="1"/></g><g class="bar"><title>0.73–0.78: 2,541</title><rect x="482.0" y="21.2" width="29.5" height="258.8" fill="#8f8ae0" rx="1"/></g><g class="bar"><title>0.78–0.82: 2,602</title><rect x="512.5" y="15.0" width="29.5" height="265.0" fill="#8f8ae0" rx="1"/></g><g class="bar"><title>0.82–0.87: 2,402</title><rect x="543.0" y="35.4" width="29.5" height="244.6" fill="#8f8ae0" rx="1"/></g><g class="bar"><title>0.87–0.91: 1,648</title><rect x="573.5" y="112.2" width="29.5" height="167.8" fill="#8f8ae0" rx="1"/></g><g class="bar"><title>0.91–0.96: 996</title><rect x="604.0" y="178.6" width="29.5" height="101.4" fill="#8f8ae0" rx="1"/></g><g class="bar"><title>0.96–1.00: 365</title><rect x="634.5" y="242.8" width="29.5" height="37.2" fill="#8f8ae0" rx="1"/></g><text x="55.0" y="308" text-anchor="middle" class="axis">0.11</text><text x="360.0" y="308" text-anchor="middle" class="axis">0.55</text><text x="665.0" y="308" text-anchor="middle" class="axis">1.00</text></svg>