<?xml version="1.0" encoding="UTF-8"?>
<svg viewBox="0 0 680 340" width="100%" preserveAspectRatio="xMidYMid meet" class="chart" style="font-family:sans-serif" xmlns="http://www.w3.org/2000/svg" role="img"><line x1="55" y1="20.0" x2="660" y2="20.0" stroke="#e2e8f0" stroke-width="1"/><text x="47" y="24.0" text-anchor="end" class="axis">18,796</text><line x1="55" y1="82.5" x2="660" y2="82.5" stroke="#e2e8f0" stroke-width="1"/><text x="47" y="86.5" text-anchor="end" class="axis">14,097</text><line x1="55" y1="145.0" x2="660" y2="145.0" stroke="#e2e8f0" stroke-width="1"/><text x="47" y="149.0" text-anchor="end" class="axis">9,398</text><line x1="55" y1="207.5" x2="660" y2="207.5" stroke="#e2e8f0" stroke-width="1"/><text x="47" y="211.5" text-anchor="end" class="axis">4,699</text><line x1="55" y1="270.0" x2="660" y2="270.0" stroke="#e2e8f0" stroke-width="1"/><text x="47" y="274.0" text-anchor="end" class="axis">0</text><g class="bar"><title>DIM_OCCUPATION: 830 rows</title><rect x="67.6" y="259.0" width="75.6" height="11.0" rx="3" fill="#5eafd6"/><text x="105.4" y="253.0" text-anchor="middle" class="val">830</text></g><text x="105.4" y="286.0" text-anchor="end" transform="rotate(-30 105.4 286.0)" class="axis">DIM_OCCUPATION</text><g class="bar"><title>DIM_TASK: 18,796 rows</title><rect x="168.4" y="20.0" width="75.6" height="250.0" rx="3" fill="#6ea8e8"/><text x="206.2" y="14.0" text-anchor="middle" class="val">18,796</text></g><text x="206.2" y="286.0" text-anchor="end" transform="rotate(-30 206.2 286.0)" class="axis">DIM_TASK</text><g class="bar"><title>DIM_REGION: 632 rows</title><rect x="269.3" y="261.6" width="75.6" height="8.4" rx="3" fill="#7c93e8"/><text x="307.1" y="255.6" text-anchor="middle" class="val">632</text></g><text x="307.1" y="286.0" text-anchor="end" transform="rotate(-30 307.1 286.0)" class="axis">DIM_REGION</text><g class="bar"><title>DIM_INDUSTRY: 414 rows</title><rect x="370.1" y="264.5" width="75.6" height="5.5" rx="3" fill="#8f8ae0"/><text x="407.9" y="258.5" text-anchor="middle" class="val">414</text></g><text x="407.9" y="286.0" text-anchor="end" transform="rotate(-30 407.9 286.0)" class="axis">DIM_INDUSTRY</text><g class="bar"><title>DIM_WAGE_BAND: 3 rows</title><rect x="470.9" y="270.0" width="75.6" height="0.0" rx="3" fill="#a98cdb"/><text x="508.8" y="264.0" text-anchor="middle" class="val">3</text></g><text x="508.8" y="286.0" text-anchor="end" transform="rotate(-30 508.8 286.0)" class="axis">DIM_WAGE_BAND</text><g class="bar"><title>FACT: 825 rows</title><rect x="571.8" y="259.0" width="75.6" height="11.0" rx="3" fill="#b58ad0"/><text x="609.6" y="253.0" text-anchor="middle" class="val">825</text></g><text x="609.6" y="286.0" text-anchor="end" transform="rotate(-30 609.6 286.0)" class="axis">FACT</text></svg>