<?xml version="1.0" encoding="UTF-8"?>
<svg viewBox="0 0 680 320" width="100%" preserveAspectRatio="xMidYMid meet" class="chart" style="font-family:sans-serif" xmlns="http://www.w3.org/2000/svg" role="img"><line x1="55" y1="15.0" x2="665" y2="15.0" stroke="#e2e8f0"/><text x="47" y="19.0" text-anchor="end" class="axis">66</text><line x1="55" y1="81.2" x2="665" y2="81.2" stroke="#e2e8f0"/><text x="47" y="85.2" text-anchor="end" class="axis">50</text><line x1="55" y1="147.5" x2="665" y2="147.5" stroke="#e2e8f0"/><text x="47" y="151.5" text-anchor="end" class="axis">33</text><line x1="55" y1="213.8" x2="665" y2="213.8" stroke="#e2e8f0"/><text x="47" y="217.8" text-anchor="end" class="axis">16</text><line x1="55" y1="280.0" x2="665" y2="280.0" stroke="#e2e8f0"/><text x="47" y="284.0" text-anchor="end" class="axis">0</text><g class="bar"><title>0.17–0.20: 11</title><rect x="55.0" y="235.8" width="29.5" height="44.2" fill="#b58ad0" rx="1"/></g><g class="bar"><title>0.20–0.23: 44</title><rect x="85.5" y="103.3" width="29.5" height="176.7" fill="#b58ad0" rx="1"/></g><g class="bar"><title>0.23–0.26: 55</title><rect x="116.0" y="59.2" width="29.5" height="220.8" fill="#b58ad0" rx="1"/></g><g class="bar"><title>0.26–0.29: 59</title><rect x="146.5" y="43.1" width="29.5" height="236.9" fill="#b58ad0" rx="1"/></g><g class="bar"><title>0.29–0.32: 64</title><rect x="177.0" y="23.0" width="29.5" height="257.0" fill="#b58ad0" rx="1"/></g><g class="bar"><title>0.32–0.36: 51</title><rect x="207.5" y="75.2" width="29.5" height="204.8" fill="#b58ad0" rx="1"/></g><g class="bar"><title>0.36–0.39: 39</title><rect x="238.0" y="123.4" width="29.5" height="156.6" fill="#b58ad0" rx="1"/></g><g class="bar"><title>0.39–0.42: 57</title><rect x="268.5" y="51.1" width="29.5" height="228.9" fill="#b58ad0" rx="1"/></g><g class="bar"><title>0.42–0.45: 58</title><rect x="299.0" y="47.1" width="29.5" height="232.9" fill="#b58ad0" rx="1"/></g><g class="bar"><title>0.45–0.48: 66</title><rect x="329.5" y="15.0" width="29.5" height="265.0" fill="#b58ad0" rx="1"/></g><g class="bar"><title>0.48–0.51: 52</title><rect x="360.0" y="71.2" width="29.5" height="208.8" fill="#b58ad0" rx="1"/></g><g class="bar"><title>0.51–0.54: 50</title><rect x="390.5" y="79.2" width="29.5" height="200.8" fill="#b58ad0" rx="1"/></g><g class="bar"><title>0.54–0.57: 41</title><rect x="421.0" y="115.4" width="29.5" height="164.6" fill="#b58ad0" rx="1"/></g><g class="bar"><title>0.57–0.60: 30</title><rect x="451.5" y="159.5" width="29.5" height="120.5" fill="#b58ad0" rx="1"/></g><g class="bar"><title>0.60–0.63: 29</title><rect x="482.0" y="163.6" width="29.5" height="116.4" fill="#b58ad0" rx="1"/></g><g class="bar"><title>0.63–0.66: 18</title><rect x="512.5" y="207.7" width="29.5" height="72.3" fill="#b58ad0" rx="1"/></g><g class="bar"><title>0.66–0.69: 7</title><rect x="543.0" y="251.9" width="29.5" height="28.1" fill="#b58ad0" rx="1"/></g><g class="bar"><title>0.69–0.72: 11</title><rect x="573.5" y="235.8" width="29.5" height="44.2" fill="#b58ad0" rx="1"/></g><g class="bar"><title>0.72–0.75: 4</title><rect x="604.0" y="263.9" width="29.5" height="16.1" fill="#b58ad0" rx="1"/></g><g class="bar"><title>0.75–0.78: 1</title><rect x="634.5" y="276.0" width="29.5" height="4.0" fill="#b58ad0" rx="1"/></g><text x="55.0" y="308" text-anchor="middle" class="axis">0.17</text><text x="360.0" y="308" text-anchor="middle" class="axis">0.48</text><text x="665.0" y="308" text-anchor="middle" class="axis">0.78</text></svg>