<?xml version="1.0" encoding="UTF-8"?>
<svg viewBox="0 0 680 300" width="100%" preserveAspectRatio="xMidYMid meet" class="chart" style="font-family:sans-serif" xmlns="http://www.w3.org/2000/svg" role="img"><line x1="55" y1="20.0" x2="660" y2="20.0" stroke="#e2e8f0" stroke-width="1"/><text x="47" y="24.0" text-anchor="end" class="axis">0.505</text><line x1="55" y1="72.5" x2="660" y2="72.5" stroke="#e2e8f0" stroke-width="1"/><text x="47" y="76.5" text-anchor="end" class="axis">0.379</text><line x1="55" y1="125.0" x2="660" y2="125.0" stroke="#e2e8f0" stroke-width="1"/><text x="47" y="129.0" text-anchor="end" class="axis">0.253</text><line x1="55" y1="177.5" x2="660" y2="177.5" stroke="#e2e8f0" stroke-width="1"/><text x="47" y="181.5" text-anchor="end" class="axis">0.126</text><line x1="55" y1="230.0" x2="660" y2="230.0" stroke="#e2e8f0" stroke-width="1"/><text x="47" y="234.0" text-anchor="end" class="axis">0.000</text><g class="bar"><title>Low: 0.327 exposure</title><rect x="80.2" y="94.0" width="151.2" height="136.0" rx="3" fill="#5eafd6"/><text x="155.8" y="88.0" text-anchor="middle" class="val">0.327</text></g><text x="155.8" y="246.0" text-anchor="end" transform="rotate(-30 155.8 246.0)" class="axis">Low</text><g class="bar"><title>Middle: 0.380 exposure</title><rect x="281.9" y="72.3" width="151.2" height="157.7" rx="3" fill="#6ea8e8"/><text x="357.5" y="66.3" text-anchor="middle" class="val">0.380</text></g><text x="357.5" y="246.0" text-anchor="end" transform="rotate(-30 357.5 246.0)" class="axis">Middle</text><g class="bar"><title>High: 0.505 exposure</title><rect x="483.5" y="20.0" width="151.2" height="210.0" rx="3" fill="#7c93e8"/><text x="559.2" y="14.0" text-anchor="middle" class="val">0.505</text></g><text x="559.2" y="246.0" text-anchor="end" transform="rotate(-30 559.2 246.0)" class="axis">High</text></svg>