<?xml version="1.0" encoding="UTF-8"?>
<svg viewBox="0 0 680 410" width="100%" preserveAspectRatio="xMidYMid meet" class="chart" style="font-family:sans-serif" xmlns="http://www.w3.org/2000/svg" role="img"><g class="bar"><title>Telemarketers: 0.785 exposure</title><text x="240" y="27.0" text-anchor="end" class="rowlab">Telemarketers</text><rect x="250" y="14.0" width="370.0" height="16" rx="3" fill="#a98cdb"/><text x="626.0" y="27.0" class="val">0.785</text></g><g class="bar"><title>Medical Transcriptionists: 0.751 exposure</title><text x="240" y="53.0" text-anchor="end" class="rowlab">Medical Transcriptionists</text><rect x="250" y="40.0" width="354.0" height="16" rx="3" fill="#a98cdb"/><text x="610.0" y="53.0" class="val">0.751</text></g><g class="bar"><title>Tax Preparers: 0.742 exposure</title><text x="240" y="79.0" text-anchor="end" class="rowlab">Tax Preparers</text><rect x="250" y="66.0" width="349.7" height="16" rx="3" fill="#a98cdb"/><text x="605.7" y="79.0" class="val">0.742</text></g><g class="bar"><title>Bookkeeping, Accounting, and Auditing Clerks: 0.728 exposure</title><text x="240" y="105.0" text-anchor="end" class="rowlab">Bookkeeping, Accounting, and Auditing …</text><rect x="250" y="92.0" width="343.1" height="16" rx="3" fill="#a98cdb"/><text x="599.1" y="105.0" class="val">0.728</text></g><g class="bar"><title>Software Quality Assurance Analysts and Testers: 0.727 exposure</title><text x="240" y="131.0" text-anchor="end" class="rowlab">Software Quality Assurance Analysts an…</text><rect x="250" y="118.0" width="342.7" height="16" rx="3" fill="#a98cdb"/><text x="598.7" y="131.0" class="val">0.727</text></g><g class="bar"><title>Title Examiners, Abstractors, and Searchers: 0.722 exposure</title><text x="240" y="157.0" text-anchor="end" class="rowlab">Title Examiners, Abstractors, and Sear…</text><rect x="250" y="144.0" width="340.3" height="16" rx="3" fill="#a98cdb"/><text x="596.3" y="157.0" class="val">0.722</text></g><g class="bar"><title>Payroll and Timekeeping Clerks: 0.718 exposure</title><text x="240" y="183.0" text-anchor="end" class="rowlab">Payroll and Timekeeping Clerks</text><rect x="250" y="170.0" width="338.4" height="16" rx="3" fill="#a98cdb"/><text x="594.4" y="183.0" class="val">0.718</text></g><g class="bar"><title>Mathematical Science Occupations, All Other: 0.716 exposure</title><text x="240" y="209.0" text-anchor="end" class="rowlab">Mathematical Science Occupations, All …</text><rect x="250" y="196.0" width="337.5" height="16" rx="3" fill="#a98cdb"/><text x="593.5" y="209.0" class="val">0.716</text></g><g class="bar"><title>Computer Programmers: 0.713 exposure</title><text x="240" y="235.0" text-anchor="end" class="rowlab">Computer Programmers</text><rect x="250" y="222.0" width="336.1" height="16" rx="3" fill="#a98cdb"/><text x="592.1" y="235.0" class="val">0.713</text></g><g class="bar"><title>Data Entry Keyers: 0.712 exposure</title><text x="240" y="261.0" text-anchor="end" class="rowlab">Data Entry Keyers</text><rect x="250" y="248.0" width="335.6" height="16" rx="3" fill="#a98cdb"/><text x="591.6" y="261.0" class="val">0.712</text></g><g class="bar"><title>Insurance Underwriters: 0.709 exposure</title><text x="240" y="287.0" text-anchor="end" class="rowlab">Insurance Underwriters</text><rect x="250" y="274.0" width="334.2" height="16" rx="3" fill="#a98cdb"/><text x="590.2" y="287.0" class="val">0.709</text></g><g class="bar"><title>Graphic Designers: 0.705 exposure</title><text x="240" y="313.0" text-anchor="end" class="rowlab">Graphic Designers</text><rect x="250" y="300.0" width="332.3" height="16" rx="3" fill="#a98cdb"/><text x="588.3" y="313.0" class="val">0.705</text></g><g class="bar"><title>Order Clerks: 0.703 exposure</title><text x="240" y="339.0" text-anchor="end" class="rowlab">Order Clerks</text><rect x="250" y="326.0" width="331.4" height="16" rx="3" fill="#a98cdb"/><text x="587.4" y="339.0" class="val">0.703</text></g><g class="bar"><title>Statistical Assistants: 0.700 exposure</title><text x="240" y="365.0" text-anchor="end" class="rowlab">Statistical Assistants</text><rect x="250" y="352.0" width="329.9" height="16" rx="3" fill="#a98cdb"/><text x="585.9" y="365.0" class="val">0.700</text></g><g class="bar"><title>Database Architects: 0.695 exposure</title><text x="240" y="391.0" text-anchor="end" class="rowlab">Database Architects</text><rect x="250" y="378.0" width="327.6" height="16" rx="3" fill="#a98cdb"/><text x="583.6" y="391.0" class="val">0.695</text></g></svg>